PathFileType	4	(X/Y/Z)	T:\Spectrum_Optical_Capture\Spectrum_Demo_10_05_01_TRUECOMBAT\07_Smooth_Trc\TC_Jog_1.trc
DataRate	CameraRate	NumFrames	NumMarkers	Units	OrigDataRate	OrigDataStartFrame	OrigNumFrames
60.0	60.0	       5	46	mm	60.0	379	       504
Frame#	Time	HeadTop			ForeHead			LFrontHead			RFrontHead			TopSpine			Sternum			Scapula			LFShoulder			LShoulder			LBicep			LOuterElbow			LHand			LWristPinky			LWristThumb			RFShoulder			RShoulder			RBicep			ROuterElbow			RHand			RWristPinky			RWristThumb			MiddleBack			LowerBack			Root			Pelvis			LBackWaist			RBackWaist			LFrontWaist			RFrontWaist			Bellymarker			LThigh			LOuterKnee			LAnkle			LHeel			LOuterMeta			LToe			RThigh			ROuterKnee			RAnkle			RHeel			ROuterMeta			RToe			Floor1			Floor2			Floor3			Floor4			
		X1	Y1	Z1	X2	Y2	Z2	X3	Y3	Z3	X4	Y4	Z4	X5	Y5	Z5	X6	Y6	Z6	X7	Y7	Z7	X8	Y8	Z8	X9	Y9	Z9	X10	Y10	Z10	X11	Y11	Z11	X12	Y12	Z12	X13	Y13	Z13	X14	Y14	Z14	X15	Y15	Z15	X16	Y16	Z16	X17	Y17	Z17	X18	Y18	Z18	X19	Y19	Z19	X20	Y20	Z20	X21	Y21	Z21	X22	Y22	Z22	X23	Y23	Z23	X24	Y24	Z24	X25	Y25	Z25	X26	Y26	Z26	X27	Y27	Z27	X28	Y28	Z28	X29	Y29	Z29	X30	Y30	Z30	X31	Y31	Z31	X32	Y32	Z32	X33	Y33	Z33	X34	Y34	Z34	X35	Y35	Z35	X36	Y36	Z36	X37	Y37	Z37	X38	Y38	Z38	X39	Y39	Z39	X40	Y40	Z40	X41	Y41	Z41	X42	Y42	Z42	X43	Y43	Z43	X44	Y44	Z44	X45	Y45	Z45	X46	Y46	Z46	

379	6.300	2820.23096	1653.30286	3401.27612	2897.29297	1535.47754	3496.38916	2925.51270	1532.47949	3379.35449	2785.63892	1529.02795	3501.28687	2734.10986	1341.68848	3279.91919	2899.95532	1148.98035	3471.89185	2626.50708	1203.35120	3326.31641	2929.22363	1263.43494	3394.43677	2945.75708	1344.04028	3230.61182	3013.52124	1139.09546	3174.83643	2955.81299	1039.67944	3107.11035	3099.36523	943.10980	3290.95728	3121.47217	857.62463	3354.36768	3157.81201	938.94043	3406.44995	2808.12744	1249.06836	3491.70337	2653.69849	1317.28149	3478.73267	2552.16797	1165.13147	3475.52100	2509.32764	1009.80450	3459.38110	2680.85278	946.21033	3627.90479	2743.29346	875.87518	3655.64600	2790.47314	940.40375	3715.82495	2726.25659	1254.24768	3257.89697	2731.37305	1126.90625	3255.02832	2737.56836	1012.91467	3259.97021	2870.13647	1047.03979	3196.86768	2861.69458	921.06262	3197.86133	2642.32178	937.95874	3373.99365	2966.46460	921.85333	3290.28760	2705.72388	939.97571	3502.47803	2901.91675	945.74860	3481.47314	2975.75073	657.57324	3252.40479	3019.90967	502.72150	3312.88818	2836.85107	244.32320	3157.98438	2716.25073	233.55702	3137.61035	2838.48438	135.33452	3140.18799	2869.05762	66.06055	3242.10913	2721.97998	681.09705	3542.15698	2743.98779	519.34326	3505.42017	2735.48364	149.39879	3399.86206	2738.05615	82.93460	3276.05493	2750.66260	42.02755	3429.48950	2866.06177	46.18470	3481.54907	4200.60352	32.70127	-4240.97559	-3732.44995	-13.09354	-4190.77832	-3783.60059	-15.59291	4949.59277	4163.01904	22.64924	4905.69092	
380	6.317	2839.08569	1657.38489	3421.57422	2915.47656	1538.29956	3515.79102	2943.63062	1535.92810	3398.75977	2803.63647	1532.68335	3520.28882	2750.15601	1346.17310	3298.66455	2916.20264	1152.94092	3489.21826	2642.15503	1208.14453	3346.74365	2946.06665	1267.41199	3411.44751	2961.23877	1348.09753	3247.47754	3025.91797	1144.49402	3185.56787	2965.23413	1048.22424	3116.70239	3110.27539	935.51965	3290.52319	3131.17334	846.19135	3348.14551	3173.36108	923.07330	3403.10840	2826.10083	1254.20117	3510.41553	2670.76367	1322.70520	3498.23755	2573.38965	1166.01184	3498.83179	2538.68115	1007.58185	3484.88672	2714.28369	960.07288	3652.95459	2781.27710	894.64313	3685.01221	2825.48413	965.87885	3739.86304	2741.30371	1258.94727	3277.28638	2746.07373	1131.61084	3272.77661	2752.82520	1017.34119	3277.79614	2886.31470	1051.72986	3215.77734	2878.45972	925.96631	3216.69849	2657.38477	942.17786	3391.16895	2981.99219	927.50470	3310.58032	2720.78247	943.71692	3519.81689	2916.79883	950.15863	3501.01294	2997.55176	665.04950	3277.07397	3045.65869	512.76019	3342.77759	2877.69580	233.48988	3200.69922	2757.98853	212.54008	3180.44214	2887.20068	124.62823	3189.98779	2920.37231	64.74546	3295.95337	2732.48511	682.24921	3555.51123	2752.42139	520.95020	3515.61816	2736.98413	153.28793	3402.83862	2739.57324	88.41206	3278.75073	2751.34985	43.12862	3430.86328	2866.72266	45.20223	3481.87793	4200.56982	32.67046	-4240.86816	-3732.43457	-12.99573	-4190.85107	-3783.63232	-15.60555	4949.64404	4162.85156	22.56678	4905.78857	
381	6.333	2857.81616	1663.09070	3441.40796	2933.46729	1542.79480	3534.64600	2961.93579	1541.20483	3417.49487	2821.62939	1537.83801	3538.90967	2766.50366	1352.23364	3317.35864	2932.44556	1158.63000	3506.39673	2657.64673	1214.45654	3366.91431	2962.95239	1273.09229	3428.18091	2976.48169	1353.85010	3264.02490	3038.24829	1152.31970	3195.37769	2974.78442	1059.29663	3124.87964	3120.33716	932.92657	3289.10059	3139.22266	840.07263	3341.78052	3186.01465	912.86255	3399.25830	2843.90259	1261.21826	3528.81714	2687.67896	1330.37024	3517.03223	2594.32031	1169.89844	3521.43921	2567.05615	1008.92706	3508.81543	2745.95020	977.61304	3675.47437	2818.19312	917.78656	3711.06445	2858.22241	994.95923	3760.70679	2756.65503	1264.76147	3296.67456	2761.00513	1137.73669	3291.01611	2768.57886	1023.23376	3295.70752	2902.86279	1057.68567	3235.10791	2895.54663	932.77374	3235.62085	2672.84766	947.76019	3408.46118	2998.22778	935.88483	3332.35815	2736.28149	948.28241	3537.34326	2932.06250	956.37805	3520.80518	3019.13574	674.30261	3301.04395	3069.33447	524.18573	3370.96021	2919.14526	221.96251	3244.99536	2801.71436	190.45569	3225.90015	2936.71167	113.78098	3242.31909	2971.81323	64.81215	3352.20850	2743.81812	685.13904	3568.75244	2761.20435	524.10858	3525.65063	2738.72095	158.71645	3406.14893	2741.97705	95.53816	3282.18970	2752.37183	44.87399	3432.60181	2867.42261	44.41222	3482.31274	4200.54932	32.63781	-4240.80664	-3732.41284	-12.89356	-4190.87061	-3783.58569	-15.62717	4949.69824	4162.66357	22.41364	4905.86084	
382	6.350	2876.24561	1669.83423	3460.56543	2951.25659	1548.62500	3552.97705	2980.24756	1547.69604	3435.54272	2839.45874	1544.10596	3557.23096	2782.68408	1359.40698	3335.79834	2948.81860	1165.89722	3523.60669	2673.40088	1221.88904	3386.86401	2979.91577	1280.22827	3444.76050	2991.70313	1360.86145	3280.44312	3050.40454	1161.91345	3204.88428	2984.23413	1072.28040	3132.36719	3129.82983	934.51917	3287.54297	3146.43530	838.60211	3336.25342	3196.40430	907.60376	3395.87329	2861.61841	1269.68091	3546.76807	2704.79443	1339.60583	3535.32251	2614.96387	1176.22485	3543.63403	2593.88745	1013.33173	3531.90088	2775.23389	997.23279	3696.09619	2853.06714	943.27600	3733.68018	2888.42651	1025.21191	3778.73877	2772.25903	1271.50586	3315.69800	2776.33569	1144.86401	3309.80200	2784.88135	1030.31934	3313.75342	2919.52734	1064.75232	3254.35059	2912.91406	940.97217	3254.61377	2688.92651	954.42004	3426.03687	3014.99097	945.73694	3353.23096	2752.43750	953.71405	3555.36182	2948.03735	964.08502	3540.57886	3040.15405	684.45245	3324.23682	3090.73340	536.12714	3397.34424	2961.35620	210.44124	3290.84326	2847.26685	168.81659	3273.95923	2986.76953	103.69866	3297.14868	3023.37744	66.56033	3410.53027	2756.42993	689.51672	3582.35132	2770.50903	528.51764	3536.09839	2741.08813	165.58070	3410.21362	2744.93384	104.39597	3286.33179	2753.66724	47.35122	3434.79102	2868.23804	44.02843	3483.05591	4200.52930	32.60046	-4240.83301	-3732.41089	-12.82833	-4190.86279	-3783.49097	-15.63446	4949.73145	4162.49463	22.30783	4905.93506	
383	6.367	2894.31958	1677.04309	3478.92358	2968.88086	1555.29187	3570.82886	2998.44751	1554.72131	3453.06299	2857.08057	1551.00696	3575.15771	2798.47339	1367.15039	3353.80811	2965.42871	1174.35706	3540.81421	2689.50952	1229.99194	3406.55151	2996.93140	1288.41406	3461.18604	3006.97876	1368.57129	3296.81006	3062.32153	1172.53955	3214.46411	2993.48486	1086.40686	3139.96313	3138.72412	939.06158	3286.70703	3153.29614	840.72974	3332.15356	3205.38037	906.07513	3393.55566	2879.28906	1279.04541	3564.16992	2722.39746	1349.69800	3553.33105	2635.14771	1184.30676	3565.38916	2618.78784	1020.10266	3554.70508	2801.82275	1017.55231	3715.53711	2885.40088	969.24109	3753.25073	2916.28809	1054.78027	3794.50342	2787.76807	1278.96106	3334.07520	2791.95215	1152.54749	3328.84424	2801.54321	1038.21289	3332.06982	2936.11304	1072.78638	3273.03564	2930.51709	949.98999	3273.71191	2705.70117	961.68579	3444.08203	3031.97241	955.61407	3371.55444	2769.30444	960.13214	3573.78418	2964.87988	972.87360	3560.04077	3060.17651	694.67670	3346.48877	3109.86157	547.69135	3421.99414	3004.42871	199.69450	3338.19800	2894.33789	149.04651	3324.55151	3037.09229	94.82879	3354.14014	3074.73926	69.62949	3470.48804	2770.33008	694.87805	3596.64526	2780.54346	533.87616	3547.50781	2744.42456	173.66582	3415.51074	2748.31860	114.99888	3291.45947	2755.21411	50.62831	3437.56128	2869.24023	44.05732	3484.22754	4200.50439	32.56220	-4240.91895	-3732.43164	-12.81403	-4190.85840	-3783.43164	-15.62433	4949.73438	4162.36475	22.32007	4906.00537	
